<?xml version="1.0" encoding="UTF-8" standalone="no"?>
<!-- Created with Inkscape (http://www.inkscape.org/) -->
<svg
   xmlns:dc="http://purl.org/dc/elements/1.1/"
   xmlns:cc="http://creativecommons.org/ns#"
   xmlns:rdf="http://www.w3.org/1999/02/22-rdf-syntax-ns#"
   xmlns:svg="http://www.w3.org/2000/svg"
   xmlns="http://www.w3.org/2000/svg"
   xmlns:xlink="http://www.w3.org/1999/xlink"
   xmlns:sodipodi="http://sodipodi.sourceforge.net/DTD/sodipodi-0.dtd"
   xmlns:inkscape="http://www.inkscape.org/namespaces/inkscape"
   width="210mm"
   height="297mm"
   id="svg2"
   sodipodi:version="0.32"
   inkscape:version="0.46"
   sodipodi:docname="jarifa2.svg"
   inkscape:output_extension="org.inkscape.output.svg.inkscape">
  <sodipodi:namedview
     id="base"
     pagecolor="#ffffff"
     bordercolor="#666666"
     borderopacity="1.0"
     inkscape:pageopacity="0.0"
     inkscape:pageshadow="2"
     inkscape:zoom="1.4142136"
     inkscape:cx="292.19594"
     inkscape:cy="554.088"
     inkscape:document-units="px"
     inkscape:current-layer="layer2"
     showgrid="false"
     inkscape:window-width="1440"
     inkscape:window-height="827"
     inkscape:window-x="0"
     inkscape:window-y="49"
     showguides="true"
     inkscape:guide-bbox="true" />
  <defs
     id="defs4">
    <inkscape:perspective
       id="perspective10"
       inkscape:persp3d-origin="372.04724 : 350.78739 : 1"
       inkscape:vp_z="744.09448 : 526.18109 : 1"
       inkscape:vp_y="0 : 1000 : 0"
       inkscape:vp_x="0 : 526.18109 : 1"
       sodipodi:type="inkscape:persp3d" />
    <inkscape:perspective
       sodipodi:type="inkscape:persp3d"
       inkscape:vp_x="0 : 526.18109 : 1"
       inkscape:vp_y="0 : 1000 : 0"
       inkscape:vp_z="744.09448 : 526.18109 : 1"
       inkscape:persp3d-origin="372.04724 : 350.78739 : 1"
       id="perspective2464" />
    <pattern
       patternUnits="userSpaceOnUse"
       width="78.142857"
       height="107.14494"
       patternTransform="translate(64.500005,328.29074)"
       id="pattern7133">
      <path
         sodipodi:type="arc"
         style="fill:#f57900;fill-opacity:0.75;fill-rule:evenodd;stroke:#000000;stroke-width:1px;stroke-linecap:butt;stroke-linejoin:miter;stroke-opacity:1"
         id="path6166"
         sodipodi:cx="258.57144"
         sodipodi:cy="445.21933"
         sodipodi:rx="48.57143"
         sodipodi:ry="48.57143"
         d="M 307.14287,445.21933 A 48.57143,48.57143 0 1 1 210.00001,445.21933 A 48.57143,48.57143 0 1 1 307.14287,445.21933 z"
         transform="matrix(0.7962154,0,0,0.7962154,-166.80714,-315.41906)" />
      <path
         style="fill:#ff0000;fill-opacity:0.75;fill-rule:evenodd;stroke:#000000;stroke-width:0.2;stroke-linecap:butt;stroke-linejoin:miter;stroke-miterlimit:4;stroke-opacity:1"
         d="M 59.749015,102.22351 C 59.749015,104.88494 58.869015,107.04494 57.784725,107.04494 C 56.700445,107.04494 55.820445,104.88494 55.820445,102.22351 C 55.820445,99.562078 56.700445,97.402078 57.784725,97.402078 C 58.869015,97.402078 59.749015,99.562078 59.749015,102.22351 z"
         id="path5847" />
    </pattern>
  </defs>
  <metadata
     id="metadata7">
    <rdf:RDF>
      <cc:Work
         rdf:about="">
        <dc:format>image/svg+xml</dc:format>
        <dc:type
           rdf:resource="http://purl.org/dc/dcmitype/StillImage" />
      </cc:Work>
    </rdf:RDF>
  </metadata>
  <g
     id="layer1"
     inkscape:groupmode="layer"
     inkscape:label="Capa 1" />
  <g
     inkscape:label="logo"
     id="layer2"
     inkscape:groupmode="layer">
    <path
       transform="translate(-5.7142857,-24.285714)"
       d="M 307.14287,445.21933 A 48.57143,48.57143 0 1 1 210.00001,445.21933 A 48.57143,48.57143 0 1 1 307.14287,445.21933 z"
       sodipodi:ry="48.57143"
       sodipodi:rx="48.57143"
       sodipodi:cy="445.21933"
       sodipodi:cx="258.57144"
       id="path2475"
       style="fill:#f57900;fill-opacity:0.75;fill-rule:evenodd;stroke:#000000;stroke-width:1px;stroke-linecap:butt;stroke-linejoin:miter;stroke-opacity:1"
       sodipodi:type="arc" />
    <use
       height="1"
       width="1"
       inkscape:transform-center-y="56.708086"
       inkscape:transform-center-x="20.64004"
       id="use10969"
       transform="matrix(0.649554,0.2364184,-0.2252665,0.6189146,255.80635,163.80664)"
       xlink:href="#path8516"
       inkscape:tiled-clone-of="#path8516"
       y="0"
       x="0" />
    <use
       height="1"
       width="1"
       inkscape:transform-center-y="46.686562"
       inkscape:transform-center-x="39.174704"
       id="use10971"
       transform="matrix(0.5594942,0.4694714,-0.4275543,0.5095393,343.29631,175.3801)"
       xlink:href="#path8516"
       inkscape:tiled-clone-of="#path8516"
       y="0"
       x="0" />
    <use
       height="1"
       width="1"
       inkscape:transform-center-y="30.771253"
       inkscape:transform-center-x="53.297381"
       id="use10973"
       transform="matrix(0.3847473,0.6664019,-0.5816898,0.3358388,423.4192,215.7236)"
       xlink:href="#path8516"
       inkscape:tiled-clone-of="#path8516"
       y="0"
       x="0" />
    <use
       height="1"
       width="1"
       inkscape:transform-center-y="10.79049"
       inkscape:transform-center-x="61.195973"
       id="use10975"
       transform="matrix(0.1404156,0.7963367,-0.6678953,0.117768,486.82247,281.24859)"
       xlink:href="#path8516"
       inkscape:tiled-clone-of="#path8516"
       y="0"
       x="0" />
    <use
       height="1"
       width="1"
       inkscape:transform-center-y="-10.894257"
       inkscape:transform-center-x="61.784355"
       id="use10977"
       transform="matrix(-0.1472099,0.8348691,-0.6743173,-0.1189004,525.71452,365.35879)"
       xlink:href="#path8516"
       inkscape:tiled-clone-of="#path8516"
       y="0"
       x="0" />
    <use
       height="1"
       width="1"
       inkscape:transform-center-y="-31.667507"
       inkscape:transform-center-x="54.849704"
       id="use10979"
       transform="matrix(-0.4434376,0.7680564,-0.5986322,-0.3456205,534.82182,459.08808)"
       xlink:href="#path8516"
       inkscape:tiled-clone-of="#path8516"
       y="0"
       x="0" />
    <use
       height="1"
       width="1"
       inkscape:transform-center-y="-48.975158"
       inkscape:transform-center-x="41.095"
       id="use10981"
       transform="matrix(-0.7093587,0.5952226,-0.4485128,-0.5345168,512.0953,552.03982)"
       xlink:href="#path8516"
       inkscape:tiled-clone-of="#path8516"
       y="0"
       x="0" />
    <use
       height="1"
       width="1"
       inkscape:transform-center-y="-60.638358"
       inkscape:transform-center-x="22.070577"
       id="use10983"
       transform="matrix(-0.9069245,0.3300935,-0.2408791,-0.6618097,459.07211,633.53122)"
       xlink:href="#path8516"
       inkscape:tiled-clone-of="#path8516"
       y="0"
       x="0" />
    <use
       height="1"
       width="1"
       inkscape:transform-center-y="-65.127499"
       id="use10985"
       transform="matrix(-1.0042557,0,0,-0.7108044,380.83545,693.81812)"
       xlink:href="#path8516"
       inkscape:tiled-clone-of="#path8516"
       y="0"
       x="0" />
    <use
       x="0"
       y="0"
       inkscape:tiled-clone-of="#path8516"
       xlink:href="#path8516"
       transform="matrix(-3.1442535,0,0,-2.1936567,652.58657,1339.5011)"
       id="use11007"
       inkscape:transform-center-y="-200.99398"
       width="1"
       height="1" />
    <use
       x="0"
       y="0"
       inkscape:tiled-clone-of="#path8516"
       xlink:href="#path8516"
       transform="matrix(-0.649554,0.2364184,0.2252665,0.6189146,251.79498,163.80664)"
       id="use11061"
       inkscape:transform-center-x="20.64004"
       inkscape:transform-center-y="56.708086"
       width="1"
       height="1" />
    <use
       x="0"
       y="0"
       inkscape:tiled-clone-of="#path8516"
       xlink:href="#path8516"
       transform="matrix(-0.5594942,0.4694714,0.4275543,0.5095393,164.30502,175.3801)"
       id="use11063"
       inkscape:transform-center-x="39.174704"
       inkscape:transform-center-y="46.686562"
       width="1"
       height="1" />
    <use
       x="0"
       y="0"
       inkscape:tiled-clone-of="#path8516"
       xlink:href="#path8516"
       transform="matrix(-0.3847473,0.6664019,0.5816898,0.3358388,84.80713,213.7236)"
       id="use11065"
       inkscape:transform-center-x="53.297381"
       inkscape:transform-center-y="30.771253"
       width="1"
       height="1" />
    <use
       x="0"
       y="0"
       inkscape:tiled-clone-of="#path8516"
       xlink:href="#path8516"
       transform="matrix(-0.1404156,0.7963367,0.6678953,0.117768,20.77886,281.24859)"
       id="use11067"
       inkscape:transform-center-x="61.195973"
       inkscape:transform-center-y="10.79049"
       width="1"
       height="1" />
    <use
       x="0"
       y="0"
       inkscape:tiled-clone-of="#path8516"
       xlink:href="#path8516"
       transform="matrix(0.1472099,0.8348691,0.6743173,-0.1189004,-18.11319,365.35879)"
       id="use11069"
       inkscape:transform-center-x="61.784355"
       inkscape:transform-center-y="-10.894257"
       width="1"
       height="1" />
    <use
       x="0"
       y="0"
       inkscape:tiled-clone-of="#path8516"
       xlink:href="#path8516"
       transform="matrix(0.4434376,0.7680564,0.5986322,-0.3456205,-27.22049,459.08808)"
       id="use11071"
       inkscape:transform-center-x="54.849704"
       inkscape:transform-center-y="-31.667507"
       width="1"
       height="1" />
    <use
       x="0"
       y="0"
       inkscape:tiled-clone-of="#path8516"
       xlink:href="#path8516"
       transform="matrix(0.7093587,0.5952226,0.4485128,-0.5345168,-4.49397,552.03982)"
       id="use11073"
       inkscape:transform-center-x="41.095"
       inkscape:transform-center-y="-48.975158"
       width="1"
       height="1" />
    <use
       x="0"
       y="0"
       inkscape:tiled-clone-of="#path8516"
       xlink:href="#path8516"
       transform="matrix(0.9069245,0.3300935,0.2408791,-0.6618097,48.52922,633.53122)"
       id="use11075"
       inkscape:transform-center-x="22.070577"
       inkscape:transform-center-y="-60.638358"
       width="1"
       height="1" />
    <use
       x="0"
       y="0"
       inkscape:tiled-clone-of="#path8516"
       xlink:href="#path8516"
       transform="matrix(1.0042557,0,0,-0.7108044,126.76588,693.81812)"
       id="use11077"
       inkscape:transform-center-y="-65.127499"
       width="1"
       height="1" />
    <use
       x="0"
       y="0"
       inkscape:tiled-clone-of="#path8516"
       xlink:href="#path8516"
       transform="matrix(0.8062351,0.2934457,-0.2796038,0.768205,259.16739,91.151407)"
       id="use10991"
       inkscape:transform-center-x="25.618697"
       inkscape:transform-center-y="70.386802"
       width="1"
       height="1"
       style="fill:#ce5c00" />
    <use
       x="0"
       y="0"
       inkscape:tiled-clone-of="#path8516"
       xlink:href="#path8516"
       transform="matrix(0.7987589,0.6702383,-0.6103957,0.7274411,392.76998,54.802219)"
       id="use10993"
       inkscape:transform-center-x="55.92759"
       inkscape:transform-center-y="66.651828"
       width="1"
       height="1" />
    <use
       x="0"
       y="0"
       inkscape:tiled-clone-of="#path8516"
       xlink:href="#path8516"
       transform="matrix(0.6388312,1.106488,-0.9658327,0.5576239,558.5928,63.264871)"
       id="use10995"
       inkscape:transform-center-x="88.494484"
       inkscape:transform-center-y="51.092342"
       width="1"
       height="1" />
    <use
       x="0"
       y="0"
       inkscape:tiled-clone-of="#path8516"
       xlink:href="#path8516"
       transform="matrix(0.2825447,1.6023915,-1.3439411,0.2369731,762.81993,125.88578)"
       id="use10997"
       inkscape:transform-center-x="123.13871"
       inkscape:transform-center-y="21.712655"
       width="1"
       height="1" />
    <use
       x="0"
       y="0"
       inkscape:tiled-clone-of="#path8516"
       xlink:href="#path8516"
       transform="matrix(-0.3470429,1.968179,-1.5896828,-0.280304,949.25838,291.6663)"
       id="use10999"
       inkscape:transform-center-x="145.65473"
       inkscape:transform-center-y="-25.682824"
       width="1"
       height="1" />
    <use
       x="0"
       y="0"
       inkscape:tiled-clone-of="#path8516"
       xlink:href="#path8516"
       transform="matrix(-1.203249,2.0840883,-1.624363,-0.9378264,1077.2986,549.65539)"
       id="use11001"
       inkscape:transform-center-x="148.8323"
       inkscape:transform-center-y="-85.928382"
       width="1"
       height="1" />
    <use
       x="0"
       y="0"
       inkscape:tiled-clone-of="#path8516"
       xlink:href="#path8516"
       transform="matrix(-2.1266715,1.7844892,-1.3446504,-1.6024921,1081.6304,865.79433)"
       id="use11003"
       inkscape:transform-center-x="123.20364"
       inkscape:transform-center-y="-146.82854"
       width="1"
       height="1"
       style="stroke:#000000;stroke-opacity:1" />
    <use
       x="0"
       y="0"
       inkscape:tiled-clone-of="#path8516"
       xlink:href="#path8516"
       transform="matrix(-2.8740163,1.0460562,-0.7633385,-2.0972549,935.76968,1167.4713)"
       id="use11005"
       inkscape:transform-center-x="69.940976"
       inkscape:transform-center-y="-192.16111"
       width="1"
       height="1" />
    <use
       height="1"
       width="1"
       inkscape:transform-center-y="72.705955"
       inkscape:transform-center-x="26.462799"
       id="use11083"
       transform="matrix(-0.832799,0.3031142,0.2888162,0.793516,246.92078,78.394972)"
       xlink:href="#path8516"
       inkscape:tiled-clone-of="#path8516"
       y="0"
       x="0" />
    <use
       height="1"
       width="1"
       inkscape:transform-center-y="65.694296"
       inkscape:transform-center-x="55.124151"
       id="use11085"
       transform="matrix(-0.7872841,0.6606098,0.6016269,0.7169908,116.65116,59.591412)"
       xlink:href="#path8516"
       inkscape:tiled-clone-of="#path8516"
       y="0"
       x="0" />
    <use
       height="1"
       width="1"
       inkscape:transform-center-y="54.087796"
       inkscape:transform-center-x="93.682866"
       id="use11087"
       transform="matrix(-0.6762851,1.1713601,1.0224584,0.5903167,-71.01148,37.900441)"
       xlink:href="#path8516"
       inkscape:tiled-clone-of="#path8516"
       y="0"
       x="0" />
    <use
       height="1"
       width="1"
       inkscape:transform-center-y="21.710151"
       inkscape:transform-center-x="123.12439"
       id="use11089"
       transform="matrix(-0.2825118,1.602205,1.3437847,0.2369456,-257.02516,126.02199)"
       xlink:href="#path8516"
       inkscape:tiled-clone-of="#path8516"
       y="0"
       x="0" />
    <use
       height="1"
       width="1"
       inkscape:transform-center-y="-25.356646"
       inkscape:transform-center-x="143.80478"
       id="use11091"
       transform="matrix(0.3426351,1.943181,1.5694921,-0.2767439,-434.2182,293.3476)"
       xlink:href="#path8516"
       inkscape:tiled-clone-of="#path8516"
       y="0"
       x="0" />
    <use
       height="1"
       width="1"
       inkscape:transform-center-y="-84.95549"
       inkscape:transform-center-x="147.14719"
       id="use11093"
       transform="matrix(1.1896251,2.0604911,1.6059711,-0.9272079,-561.99121,548.2033)"
       xlink:href="#path8516"
       inkscape:tiled-clone-of="#path8516"
       y="0"
       x="0" />
    <use
       height="1"
       width="1"
       inkscape:transform-center-y="-144.30793"
       inkscape:transform-center-x="122.14581"
       id="use11095"
       transform="matrix(2.1084122,1.753855,1.3331054,-1.5749822,-568.63749,857.67408)"
       xlink:href="#path8516"
       inkscape:tiled-clone-of="#path8516"
       y="0"
       x="0" />
    <use
       height="1"
       width="1"
       inkscape:transform-center-y="-188.87316"
       inkscape:transform-center-x="68.744206"
       id="use11097"
       transform="matrix(2.8248391,1.0281572,0.7502771,-2.0613689,-416.54054,1154.8209)"
       xlink:href="#path8516"
       inkscape:tiled-clone-of="#path8516"
       y="0"
       x="0" />
    <use
       height="1"
       width="1"
       inkscape:transform-center-y="-205.68671"
       id="use11099"
       transform="matrix(3.2176633,0,0,-2.2448727,-154.29518,1362.0705)"
       xlink:href="#path8516"
       inkscape:tiled-clone-of="#path8516"
       y="0"
       x="0" />
    <path
       sodipodi:type="arc"
       style="fill:#f57900;fill-opacity:0.75;fill-rule:evenodd;stroke:#000000;stroke-width:1px;stroke-linecap:butt;stroke-linejoin:miter;stroke-opacity:1"
       id="path10819"
       sodipodi:cx="258.57144"
       sodipodi:cy="445.21933"
       sodipodi:rx="48.57143"
       sodipodi:ry="48.57143"
       d="M 307.14287,445.21933 A 48.57143,48.57143 0 1 1 210.00001,445.21933 A 48.57143,48.57143 0 1 1 307.14287,445.21933 z"
       transform="matrix(0.6841339,0,0,0.6841339,75.95966,123.45095)"
       inkscape:transform-center-y="-15.393029" />
    <g
       id="g10939"
       style="opacity:1;fill:#8f5902;fill-opacity:1;stroke:none"
       transform="translate(-10.960155,9.1923882)">
      <path
         inkscape:tile-y0="430.96934"
         inkscape:tile-x0="125.39285"
         inkscape:tile-h="9.64286"
         inkscape:tile-w="2.85714"
         inkscape:tile-cy="376.04077"
         inkscape:tile-cx="126.82142"
         inkscape:transform-center-y="59.75"
         style="fill:#8f5902;fill-opacity:1;fill-rule:evenodd;stroke:none;stroke-width:0.10000000000000001;stroke-linecap:butt;stroke-linejoin:miter;stroke-miterlimit:4;stroke-opacity:1"
         d="M 128.24999,435.79077 C 128.24999,438.4522 127.60999,440.6122 126.82142,440.6122 C 126.03285,440.6122 125.39285,438.4522 125.39285,435.79077 C 125.39285,433.12934 126.03285,430.96934 126.82142,430.96934 C 127.60999,430.96934 128.24999,433.12934 128.24999,435.79077 z"
         id="path8516" />
      <use
         height="1"
         width="1"
         inkscape:transform-center-y="59.75"
         id="use10897"
         xlink:href="#path8516"
         inkscape:tiled-clone-of="#path8516"
         y="0"
         x="0"
         style="fill:#8f5902;fill-opacity:1;stroke:none" />
      <use
         height="1"
         width="1"
         inkscape:transform-center-y="56.708086"
         inkscape:transform-center-x="20.64004"
         id="use10899"
         transform="matrix(0.9960742,0.3625414,-0.3454403,0.9490895,130.39753,-26.833603)"
         xlink:href="#path8516"
         inkscape:tiled-clone-of="#path8516"
         y="0"
         x="0"
         style="fill:#8f5902;fill-opacity:1;stroke:none" />
      <use
         height="1"
         width="1"
         inkscape:transform-center-y="46.686562"
         inkscape:transform-center-x="39.174704"
         id="use10901"
         transform="matrix(0.8579698,0.7199221,-0.6556434,0.7813653,264.56111,-9.085997)"
         xlink:href="#path8516"
         inkscape:tiled-clone-of="#path8516"
         y="0"
         x="0"
         style="fill:#8f5902;fill-opacity:1;stroke:none" />
      <use
         height="1"
         width="1"
         inkscape:transform-center-y="30.771253"
         inkscape:transform-center-x="53.297381"
         id="use10903"
         transform="matrix(0.59,1.02191,-0.8920062,0.515,387.42747,52.779699)"
         xlink:href="#path8516"
         inkscape:tiled-clone-of="#path8516"
         y="0"
         x="0"
         style="fill:#8f5902;fill-opacity:1;stroke:none" />
      <use
         height="1"
         width="1"
         inkscape:transform-center-y="10.79049"
         inkscape:transform-center-x="61.195973"
         id="use10905"
         transform="matrix(0.2153237,1.2211616,-1.0242001,0.1805941,484.65474,153.26057)"
         xlink:href="#path8516"
         inkscape:tiled-clone-of="#path8516"
         y="0"
         x="0"
         style="fill:#8f5902;fill-opacity:1;stroke:none" />
      <use
         height="1"
         width="1"
         inkscape:transform-center-y="-10.894257"
         inkscape:transform-center-x="61.784355"
         id="use10907"
         transform="matrix(-0.2257426,1.2802501,-1.0340481,-0.1823306,544.29468,282.24137)"
         xlink:href="#path8516"
         inkscape:tiled-clone-of="#path8516"
         y="0"
         x="0"
         style="fill:#8f5902;fill-opacity:1;stroke:none" />
      <use
         height="1"
         width="1"
         inkscape:transform-center-y="-31.667507"
         inkscape:transform-center-x="54.849704"
         id="use10909"
         transform="matrix(-0.68,1.1777945,-0.9179869,-0.53,558.2605,425.9728)"
         xlink:href="#path8516"
         inkscape:tiled-clone-of="#path8516"
         y="0"
         x="0"
         style="fill:#8f5902;fill-opacity:1;stroke:none" />
      <use
         height="1"
         width="1"
         inkscape:transform-center-y="-48.975158"
         inkscape:transform-center-x="41.095"
         id="use10911"
         transform="matrix(-1.0877831,0.9127584,-0.6877827,-0.8196676,523.40997,568.51187)"
         xlink:href="#path8516"
         inkscape:tiled-clone-of="#path8516"
         y="0"
         x="0"
         style="fill:#8f5902;fill-opacity:1;stroke:none" />
      <use
         height="1"
         width="1"
         inkscape:transform-center-y="-60.638358"
         inkscape:transform-center-x="22.070577"
         id="use10913"
         transform="matrix(-1.3907451,0.5061898,-0.3693818,-1.014868,442.10029,693.47681)"
         xlink:href="#path8516"
         inkscape:tiled-clone-of="#path8516"
         y="0"
         x="0"
         style="fill:#8f5902;fill-opacity:1;stroke:none" />
      <use
         height="1"
         width="1"
         inkscape:transform-center-y="-65.127499"
         id="use10915"
         transform="matrix(-1.54,0,0,-1.09,322.12641,785.92521)"
         xlink:href="#path8516"
         inkscape:tiled-clone-of="#path8516"
         y="0"
         x="0"
         style="fill:#8f5902;fill-opacity:1;stroke:none" />
      <path
         id="path10917"
         d="M 128.24999,435.79077 C 128.24999,438.4522 127.60999,440.6122 126.82142,440.6122 C 126.03285,440.6122 125.39285,438.4522 125.39285,435.79077 C 125.39285,433.12934 126.03285,430.96934 126.82142,430.96934 C 127.60999,430.96934 128.24999,433.12934 128.24999,435.79077 z"
         style="fill:#8f5902;fill-opacity:1;fill-rule:evenodd;stroke:none;stroke-width:0.10000000000000001;stroke-linecap:butt;stroke-linejoin:miter;stroke-miterlimit:4;stroke-opacity:1"
         inkscape:transform-center-y="59.75"
         inkscape:tile-cx="126.82142"
         inkscape:tile-cy="376.04077"
         inkscape:tile-w="2.85714"
         inkscape:tile-h="9.64286"
         inkscape:tile-x0="125.39285"
         inkscape:tile-y0="430.96934" />
      <use
         x="0"
         y="0"
         inkscape:tiled-clone-of="#path8516"
         xlink:href="#path8516"
         id="use10919"
         inkscape:transform-center-y="59.75"
         width="1"
         height="1"
         style="fill:#8f5902;fill-opacity:1;stroke:none" />
      <use
         x="0"
         y="0"
         inkscape:tiled-clone-of="#path8516"
         xlink:href="#path8516"
         transform="matrix(0.9960742,0.3625414,-0.3454403,0.9490895,130.39753,-26.833603)"
         id="use10921"
         inkscape:transform-center-x="20.64004"
         inkscape:transform-center-y="56.708086"
         width="1"
         height="1"
         style="fill:#8f5902;fill-opacity:1;stroke:none" />
      <use
         x="0"
         y="0"
         inkscape:tiled-clone-of="#path8516"
         xlink:href="#path8516"
         transform="matrix(0.8579698,0.7199221,-0.6556434,0.7813653,264.56111,-9.085997)"
         id="use10923"
         inkscape:transform-center-x="39.174704"
         inkscape:transform-center-y="46.686562"
         width="1"
         height="1"
         style="fill:#8f5902;fill-opacity:1;stroke:none" />
      <use
         x="0"
         y="0"
         inkscape:tiled-clone-of="#path8516"
         xlink:href="#path8516"
         transform="matrix(0.59,1.02191,-0.8920062,0.515,387.42747,52.779699)"
         id="use10925"
         inkscape:transform-center-x="53.297381"
         inkscape:transform-center-y="30.771253"
         width="1"
         height="1"
         style="fill:#8f5902;fill-opacity:1;stroke:none" />
      <use
         x="0"
         y="0"
         inkscape:tiled-clone-of="#path8516"
         xlink:href="#path8516"
         transform="matrix(0.2153237,1.2211616,-1.0242001,0.1805941,484.65474,153.26057)"
         id="use10927"
         inkscape:transform-center-x="61.195973"
         inkscape:transform-center-y="10.79049"
         width="1"
         height="1"
         style="fill:#8f5902;fill-opacity:1;stroke:none" />
      <use
         x="0"
         y="0"
         inkscape:tiled-clone-of="#path8516"
         xlink:href="#path8516"
         transform="matrix(-0.2257426,1.2802501,-1.0340481,-0.1823306,544.29468,282.24137)"
         id="use10929"
         inkscape:transform-center-x="61.784355"
         inkscape:transform-center-y="-10.894257"
         width="1"
         height="1"
         style="fill:#8f5902;fill-opacity:1;stroke:none" />
      <use
         x="0"
         y="0"
         inkscape:tiled-clone-of="#path8516"
         xlink:href="#path8516"
         transform="matrix(-0.68,1.1777945,-0.9179869,-0.53,558.2605,425.9728)"
         id="use10931"
         inkscape:transform-center-x="54.849704"
         inkscape:transform-center-y="-31.667507"
         width="1"
         height="1"
         style="fill:#8f5902;fill-opacity:1;stroke:none" />
      <use
         x="0"
         y="0"
         inkscape:tiled-clone-of="#path8516"
         xlink:href="#path8516"
         transform="matrix(-1.0877831,0.9127584,-0.6877827,-0.8196676,523.40997,568.51187)"
         id="use10933"
         inkscape:transform-center-x="41.095"
         inkscape:transform-center-y="-48.975158"
         width="1"
         height="1"
         style="fill:#8f5902;fill-opacity:1;stroke:none" />
      <use
         x="0"
         y="0"
         inkscape:tiled-clone-of="#path8516"
         xlink:href="#path8516"
         transform="matrix(-1.3907451,0.5061898,-0.3693818,-1.014868,442.10029,693.47681)"
         id="use10935"
         inkscape:transform-center-x="22.070577"
         inkscape:transform-center-y="-60.638358"
         width="1"
         height="1"
         style="fill:#8f5902;fill-opacity:1;stroke:none" />
      <use
         x="0"
         y="0"
         inkscape:tiled-clone-of="#path8516"
         xlink:href="#path8516"
         transform="matrix(-1.54,0,0,-1.09,322.12641,785.92521)"
         id="use10937"
         inkscape:transform-center-y="-65.127499"
         width="1"
         height="1"
         style="fill:#8f5902;fill-opacity:1;stroke:none" />
    </g>
    <path
       sodipodi:type="star"
       style="opacity:1;fill:#555753;fill-opacity:1;fill-rule:evenodd;stroke:none;stroke-width:0.10000000000000001;stroke-linecap:round;stroke-linejoin:miter;stroke-miterlimit:4;stroke-dasharray:none;stroke-dashoffset:0;stroke-opacity:1"
       id="path2459"
       sodipodi:sides="19"
       sodipodi:cx="303.5"
       sodipodi:cy="319.36218"
       sodipodi:r1="27.856775"
       sodipodi:r2="13.928387"
       sodipodi:arg1="0.36717383"
       sodipodi:arg2="0.53252081"
       inkscape:flatsided="false"
       inkscape:rounded="0"
       inkscape:randomized="0"
       d="M 329.5,329.36218 L 315.49972,326.43372 L 324.84425,337.26254 L 312.55342,329.94687 L 317.87553,343.22312 L 308.62604,332.313 L 309.34899,346.59799 L 304.14317,333.27571 L 300.18862,347.02144 L 299.59061,332.73068 L 291.38709,344.44758 L 295.46169,330.73696 L 283.89819,339.15533 L 292.20384,327.51061 L 278.53344,331.71819 L 290.17011,323.40124 L 275.87421,322.94208 L 289.58088,318.85419 L 276.20866,313.77803 L 290.5,314.36218 L 279.50055,305.21911 L 292.82787,310.412 L 285.39316,298.19281 L 296.31224,307.43172 L 293.24792,293.46055 L 300.57551,305.74428 L 302.21365,291.53512 L 305.15569,305.53255 L 311.31878,292.62519 L 309.55645,306.81948 L 319.57662,296.61263 L 313.30091,309.46561 L 326.09232,303.06534 L 315.98328,313.18418 L 330.15978,311.28406 L 317.31289,317.57224 L 331.33824,320.37817 L 317.14567,322.15426 L 329.5,329.36218 z"
       transform="matrix(1.1526158,0,0,1.1077288,-97.068905,73.095488)" />
    <path
       style="fill:#000000;fill-opacity:1;fill-rule:evenodd;stroke:none;stroke-width:1.17318439000000008px;stroke-linecap:butt;stroke-linejoin:miter;stroke-opacity:1"
       d="M 253.15625,421.09375 C 247.59648,421.09374 243.06249,425.53782 243.0625,431 C 243.0625,431.48001 243.12015,431.94443 243.1875,432.40625 L 243.1875,500.90625 C 242.49848,521.57649 176.08702,504.50479 206.8125,497.375 C 192.26219,498.9545 195.75418,508.43549 196.6132,511.01771 C 200.5606,523.01311 234.14106,528.2911 251.5,517.625 C 257.64374,513.60275 262.47379,507.7131 263,500.90625 L 263.0625,432.59375 C 263.14863,432.07339 263.21875,431.54414 263.21875,431 C 263.21875,425.5378 258.71603,421.09376 253.15625,421.09375 z"
       id="rect2463"
       sodipodi:nodetypes="cscccccccsc" />
    <text
       xml:space="preserve"
       style="font-size:48px;font-style:normal;font-variant:normal;font-weight:normal;font-stretch:normal;fill:#000000;fill-opacity:1;stroke:none;stroke-width:1px;stroke-linecap:butt;stroke-linejoin:miter;stroke-opacity:1;font-family:DejaVu Sans;-inkscape-font-specification:DejaVu Sans"
       x="341.53256"
       y="441.42194"
       id="text4513"><tspan
         sodipodi:role="line"
         id="tspan4515"
         x="341.53256"
         y="441.42194" /></text>
    <text
       xml:space="preserve"
       style="font-size:48px;font-style:normal;font-variant:normal;font-weight:normal;font-stretch:normal;fill:#000000;fill-opacity:1;stroke:none;stroke-width:1px;stroke-linecap:butt;stroke-linejoin:miter;stroke-opacity:1;font-family:DejaVu Sans;-inkscape-font-specification:DejaVu Sans"
       x="354.2605"
       y="508.59708"
       id="text4537"><tspan
         sodipodi:role="line"
         id="tspan4539"
         x="354.2605"
         y="508.59708" /></text>
    <text
       xml:space="preserve"
       style="font-size:48px;font-style:normal;font-variant:normal;font-weight:normal;font-stretch:normal;fill:#000000;fill-opacity:1;stroke:none;stroke-width:1px;stroke-linecap:butt;stroke-linejoin:miter;stroke-opacity:1;font-family:DejaVu Sans;-inkscape-font-specification:DejaVu Sans"
       x="512.06805"
       y="388.7547"
       id="text2461"><tspan
         sodipodi:role="line"
         id="tspan2463"
         x="512.06805"
         y="388.7547">arifa</tspan></text>
    <path
       sodipodi:nodetypes="cscccccccsc"
       id="path3228"
       d="M 304.95679,504.29263 C 302.93286,504.29263 301.28235,502.67485 301.28236,500.68645 C 301.28236,500.51171 301.30334,500.34265 301.32786,500.17453 L 301.32786,475.23846 C 301.07703,467.71386 276.90125,473.92848 288.08626,476.52394 C 282.7895,475.94895 284.06069,472.49758 284.3734,471.55758 C 285.81037,467.19089 298.03468,465.26954 304.35386,469.15232 C 306.59037,470.61654 306.59865,472.76056 306.79021,475.23846 L 308.56296,500.10628 C 308.59432,500.29571 308.61984,500.48837 308.61984,500.68645 C 308.61984,502.67486 306.98072,504.29262 304.95679,504.29263 z"
       style="fill:#000000;fill-opacity:1;fill-rule:evenodd;stroke:none;stroke-width:1.17318439px;stroke-linecap:butt;stroke-linejoin:miter;stroke-opacity:1" />
    <path
       style="fill:#000000;fill-opacity:1;fill-rule:evenodd;stroke:none;stroke-width:1.17318439px;stroke-linecap:butt;stroke-linejoin:miter;stroke-opacity:1"
       d="M 286.31474,504.29263 C 287.78139,504.29263 288.97744,503.1203 288.97743,501.6794 C 288.97743,501.55277 288.96223,501.43026 288.94446,501.30843 L 288.94446,483.23841 C 289.12623,477.78568 306.6453,482.28913 298.54004,484.16994 C 302.37836,483.75327 301.45718,481.25223 301.23058,480.57105 C 300.18927,477.40671 291.33088,476.0144 286.75166,478.82807 C 285.13096,479.88912 283.85682,481.44279 283.718,483.23841 L 283.70152,501.25898 C 283.67879,501.39625 283.6603,501.53586 283.6603,501.6794 C 283.6603,503.12031 284.84809,504.29262 286.31474,504.29263 z"
       id="path3230"
       sodipodi:nodetypes="cscccccccsc" />
    <path
       sodipodi:nodetypes="cscccccccsc"
       id="path3246"
       d="M 286.31474,504.29263 C 287.78139,504.29263 288.97744,503.1203 288.97743,501.6794 C 288.97743,501.55277 288.96223,501.43026 288.94446,501.30843 L 288.94446,483.23841 C 289.12623,477.78568 306.6453,482.28913 298.54004,484.16994 C 302.37836,483.75327 301.45718,481.25223 301.23058,480.57105 C 300.18927,477.40671 291.33088,476.0144 286.75166,478.82807 C 285.13096,479.88912 283.85682,481.44279 283.718,483.23841 L 283.70152,501.25898 C 283.67879,501.39625 283.6603,501.53586 283.6603,501.6794 C 283.6603,503.12031 284.84809,504.29262 286.31474,504.29263 z"
       style="fill:#000000;fill-opacity:1;fill-rule:evenodd;stroke:none;stroke-width:1.17318439px;stroke-linecap:butt;stroke-linejoin:miter;stroke-opacity:1" />
    <g
       id="g3278"
       transform="translate(-4,0)">
      <g
         transform="translate(100.05561,0.3535534)"
         id="g3254">
        <path
           style="fill:#000000;fill-opacity:1;fill-rule:evenodd;stroke:none;stroke-width:1.17318439px;stroke-linecap:butt;stroke-linejoin:miter;stroke-opacity:1"
           d="M 304.95679,504.29263 C 302.93286,504.29263 301.28235,502.67485 301.28236,500.68645 C 301.28236,500.51171 301.30334,500.34265 301.32786,500.17453 L 301.32786,475.23846 C 301.07703,467.71386 276.90125,473.92848 288.08626,476.52394 C 282.7895,475.94895 284.06069,472.49758 284.3734,471.55758 C 285.81037,467.19089 298.03468,465.26954 304.35386,469.15232 C 306.59037,470.61654 308.34865,472.76056 308.54021,475.23846 L 308.56296,500.10628 C 308.59432,500.29571 308.61984,500.48837 308.61984,500.68645 C 308.61984,502.67486 306.98072,504.29262 304.95679,504.29263 z"
           id="path3256"
           sodipodi:nodetypes="cscccccccsc" />
        <path
           sodipodi:nodetypes="cscccccccsc"
           id="path3258"
           d="M 286.31474,504.29263 C 287.78139,504.29263 288.97744,503.1203 288.97743,501.6794 C 288.97743,501.55277 288.96223,501.43026 288.94446,501.30843 L 288.94446,483.23841 C 289.12623,477.78568 306.6453,482.28913 298.54004,484.16994 C 302.37836,483.75327 301.45718,481.25223 301.23058,480.57105 C 300.18927,477.40671 291.33088,476.0144 286.75166,478.82807 C 285.13096,479.88912 283.85682,481.44279 283.718,483.23841 L 283.70152,501.25898 C 283.67879,501.39625 283.6603,501.53586 283.6603,501.6794 C 283.6603,503.12031 284.84809,504.29262 286.31474,504.29263 z"
           style="fill:#000000;fill-opacity:1;fill-rule:evenodd;stroke:none;stroke-width:1.17318439px;stroke-linecap:butt;stroke-linejoin:miter;stroke-opacity:1" />
        <path
           sodipodi:nodetypes="cscccccccsc"
           id="path3260"
           d="M 304.95679,504.29263 C 302.93286,504.29263 301.28235,502.67485 301.28236,500.68645 C 301.28236,500.51171 301.30334,500.34265 301.32786,500.17453 L 301.32786,475.23846 C 301.07703,467.71386 276.90125,473.92848 288.08626,476.52394 C 282.7895,475.94895 284.06069,472.49758 284.3734,471.55758 C 285.81037,467.19089 298.03468,465.26954 304.35386,469.15232 C 306.59037,470.61654 308.34865,472.76056 308.54021,475.23846 L 308.56296,500.10628 C 308.59432,500.29571 308.61984,500.48837 308.61984,500.68645 C 308.61984,502.67486 306.98072,504.29262 304.95679,504.29263 z"
           style="fill:#000000;fill-opacity:1;fill-rule:evenodd;stroke:none;stroke-width:1.17318439px;stroke-linecap:butt;stroke-linejoin:miter;stroke-opacity:1" />
        <path
           style="fill:#000000;fill-opacity:1;fill-rule:evenodd;stroke:none;stroke-width:1.17318439px;stroke-linecap:butt;stroke-linejoin:miter;stroke-opacity:1"
           d="M 286.31474,504.29263 C 287.78139,504.29263 288.97744,503.1203 288.97743,501.6794 C 288.97743,501.55277 288.96223,501.43026 288.94446,501.30843 L 288.94446,483.23841 C 289.12623,477.78568 306.6453,482.28913 298.54004,484.16994 C 302.37836,483.75327 301.45718,481.25223 301.23058,480.57105 C 300.18927,477.40671 291.33088,476.0144 286.75166,478.82807 C 285.13096,479.88912 283.85682,481.44279 283.718,483.23841 L 283.70152,501.25898 C 283.67879,501.39625 283.6603,501.53586 283.6603,501.6794 C 283.6603,503.12031 284.84809,504.29262 286.31474,504.29263 z"
           id="path3262"
           sodipodi:nodetypes="cscccccccsc" />
      </g>
    </g>
    <path
       sodipodi:nodetypes="cscccccccsc"
       id="path3264"
       d="M 319.90231,502.87841 C 321.36896,502.87841 322.56501,501.70608 322.565,500.26518 C 322.565,500.13855 322.5498,500.01604 322.53203,499.89421 L 322.53203,481.82419 C 322.7138,476.37146 340.23287,480.87491 332.12761,482.75572 C 335.96593,482.33905 335.04475,479.83801 334.81815,479.15683 C 333.77684,475.99249 324.91845,474.60018 320.33923,477.41385 C 318.71853,478.4749 317.44439,480.02857 317.30557,481.82419 L 317.28909,499.84476 C 317.26636,499.98203 317.24787,500.12164 317.24787,500.26518 C 317.24787,501.70609 318.43566,502.8784 319.90231,502.87841 z"
       style="fill:#000000;fill-opacity:1;fill-rule:evenodd;stroke:none;stroke-width:1.17318439px;stroke-linecap:butt;stroke-linejoin:miter;stroke-opacity:1" />
    <g
       id="g3285">
      <path
         sodipodi:nodetypes="cscccccccsc"
         id="path3236"
         d="M 340.76196,503.93907 C 342.22861,503.93907 343.42466,502.76674 343.42465,501.32584 C 343.42465,501.19921 343.40945,501.0767 343.39168,500.95487 L 343.39168,482.88485 C 343.57345,477.43212 361.09252,481.93557 352.98726,483.81638 C 356.82558,483.39971 355.9044,480.89867 355.6778,480.21749 C 354.63649,477.05315 345.7781,475.66084 341.19888,478.47451 C 339.57818,479.53556 338.30404,481.08923 338.16522,482.88485 L 338.14874,500.90542 C 338.12601,501.04269 338.10752,501.1823 338.10752,501.32584 C 338.10752,502.76675 339.29531,503.93906 340.76196,503.93907 z"
         style="fill:#000000;fill-opacity:1;fill-rule:evenodd;stroke:none;stroke-width:1.17318439px;stroke-linecap:butt;stroke-linejoin:miter;stroke-opacity:1" />
      <path
         transform="translate(4.596194,0.7071068)"
         d="M 345.77521,471.47397 A 3.7123106,2.8284271 0 1 1 338.35059,471.47397 A 3.7123106,2.8284271 0 1 1 345.77521,471.47397 z"
         sodipodi:ry="2.8284271"
         sodipodi:rx="3.7123106"
         sodipodi:cy="471.47397"
         sodipodi:cx="342.0629"
         id="path3266"
         style="fill:#000000;fill-opacity:1;fill-rule:evenodd;stroke:none;stroke-width:1px;stroke-linecap:butt;stroke-linejoin:miter;stroke-opacity:1"
         sodipodi:type="arc" />
    </g>
    <g
       id="g3289">
      <path
         style="fill:#000000;fill-opacity:1;fill-rule:evenodd;stroke:none;stroke-width:1.17318439px;stroke-linecap:butt;stroke-linejoin:miter;stroke-opacity:1"
         d="M 362.68227,492.62536 C 364.14892,492.62536 365.34497,491.45303 365.34496,490.01213 C 365.34496,489.8855 365.32976,489.76299 365.31199,489.64116 L 365.31199,471.57114 C 365.49376,466.11841 383.01283,470.62186 374.90757,472.50267 C 378.74589,472.086 377.82471,469.58496 377.59811,468.90378 C 376.5568,465.73944 367.69841,464.34713 363.11919,467.1608 C 361.49849,468.22185 360.22435,469.77552 360.08553,471.57114 L 360.06905,489.59171 C 360.04632,489.72898 360.02783,489.86859 360.02783,490.01213 C 360.02783,491.45304 361.21562,492.62535 362.68227,492.62536 z"
         id="path3238"
         sodipodi:nodetypes="cscccccccsc" />
      <path
         sodipodi:nodetypes="cscccccccsc"
         id="path3240"
         d="M 362.70485,485.9619 C 361.2382,485.9619 360.04215,487.13423 360.04216,488.57513 C 360.04216,488.70176 360.05736,488.82427 360.07513,488.9461 L 360.07513,507.01612 C 359.89336,512.46885 342.37429,507.9654 350.47955,506.08459 C 346.64123,506.50126 347.56241,509.0023 347.78901,509.68348 C 348.83032,512.84782 357.68871,514.24013 362.26793,511.42646 C 363.88863,510.36541 365.16277,508.81174 365.30159,507.01612 L 365.31807,488.99555 C 365.3408,488.85828 365.35929,488.71867 365.35929,488.57513 C 365.35929,487.13422 364.1715,485.96191 362.70485,485.9619 z"
         style="fill:#000000;fill-opacity:1;fill-rule:evenodd;stroke:none;stroke-width:1.17318439px;stroke-linecap:butt;stroke-linejoin:miter;stroke-opacity:1" />
      <rect
         y="488.61218"
         x="356.125"
         height="2.375"
         width="13.25"
         id="rect3276"
         style="fill:#000000;fill-opacity:1;fill-rule:evenodd;stroke:none;stroke-width:1px;stroke-linecap:butt;stroke-linejoin:miter;stroke-opacity:1" />
    </g>
    <rect
       style="fill:#000000;fill-opacity:1;fill-rule:evenodd;stroke:none;stroke-width:1px;stroke-linecap:butt;stroke-linejoin:miter;stroke-opacity:1"
       id="rect3294"
       width="19.071922"
       height="5.5"
       x="286.01385"
       y="498.75992" />
    <rect
       y="499.00992"
       x="382.76385"
       height="5.5"
       width="19.071922"
       id="rect3296"
       style="fill:#000000;fill-opacity:1;fill-rule:evenodd;stroke:none;stroke-width:1px;stroke-linecap:butt;stroke-linejoin:miter;stroke-opacity:1" />
  </g>
</svg>
