<?xml version="1.0" encoding="UTF-8" standalone="no"?>
<!-- Created with Inkscape (http://www.inkscape.org/) -->
<svg
   xmlns:dc="http://purl.org/dc/elements/1.1/"
   xmlns:cc="http://creativecommons.org/ns#"
   xmlns:rdf="http://www.w3.org/1999/02/22-rdf-syntax-ns#"
   xmlns:svg="http://www.w3.org/2000/svg"
   xmlns="http://www.w3.org/2000/svg"
   xmlns:sodipodi="http://sodipodi.sourceforge.net/DTD/sodipodi-0.dtd"
   xmlns:inkscape="http://www.inkscape.org/namespaces/inkscape"
   width="210mm"
   height="297mm"
   id="svg2"
   sodipodi:version="0.32"
   inkscape:version="0.46"
   sodipodi:docname="logo.svg"
   inkscape:output_extension="org.inkscape.output.svg.inkscape"
   inkscape:export-filename="/home/teleyinex/Proyectos/ogm/trunk/img/logo.png"
   inkscape:export-xdpi="150"
   inkscape:export-ydpi="150">
  <defs
     id="defs4">
    <inkscape:path-effect
       effect="skeletal"
       id="path-effect3329"
       prop_scale="1" />
    <inkscape:perspective
       sodipodi:type="inkscape:persp3d"
       inkscape:vp_x="-11.482285 : 665.20564 : 1"
       inkscape:vp_y="6.1230318e-14 : 1000 : 0"
       inkscape:vp_z="450.77964 : 670.2564 : 1"
       inkscape:persp3d-origin="215.103 : 103.93367 : 1"
       id="perspective2597" />
    <inkscape:perspective
       id="perspective2581"
       inkscape:persp3d-origin="215.103 : 163.27576 : 1"
       inkscape:vp_z="450.77964 : 729.59849 : 1"
       inkscape:vp_y="6.1230318e-14 : 1000 : 0"
       inkscape:vp_x="-11.482285 : 724.54773 : 1"
       sodipodi:type="inkscape:persp3d" />
    <inkscape:perspective
       sodipodi:type="inkscape:persp3d"
       inkscape:vp_x="-11.48228 : 783.8898 : 1"
       inkscape:vp_y="6.1230318e-14 : 1000 : 0"
       inkscape:vp_z="450.77964 : 788.94056 : 1"
       inkscape:persp3d-origin="215.103 : 222.61783 : 1"
       id="perspective2565" />
    <inkscape:perspective
       id="perspective2549"
       inkscape:persp3d-origin="157.38674 : 222.61783 : 1"
       inkscape:vp_z="393.06338 : 788.94056 : 1"
       inkscape:vp_y="6.1230318e-14 : 1000 : 0"
       inkscape:vp_x="-69.198541 : 783.8898 : 1"
       sodipodi:type="inkscape:persp3d" />
    <inkscape:perspective
       sodipodi:type="inkscape:persp3d"
       inkscape:vp_x="-127.72771 : 783.8898 : 1"
       inkscape:vp_y="6.1230318e-14 : 1000 : 0"
       inkscape:vp_z="334.53421 : 788.94056 : 1"
       inkscape:persp3d-origin="98.857568 : 222.61783 : 1"
       id="perspective2533" />
    <inkscape:perspective
       id="perspective2517"
       inkscape:persp3d-origin="98.857579 : 163.27576 : 1"
       inkscape:vp_z="334.53422 : 729.59849 : 1"
       inkscape:vp_y="6.1230318e-14 : 1000 : 0"
       inkscape:vp_x="-127.7277 : 724.54773 : 1"
       sodipodi:type="inkscape:persp3d" />
    <inkscape:perspective
       sodipodi:type="inkscape:persp3d"
       inkscape:vp_x="-69.198528 : 724.54773 : 1"
       inkscape:vp_y="6.1230318e-14 : 1000 : 0"
       inkscape:vp_z="393.06339 : 729.59849 : 1"
       inkscape:persp3d-origin="157.38675 : 163.27576 : 1"
       id="perspective2501" />
    <inkscape:perspective
       id="perspective2485"
       inkscape:persp3d-origin="157.38675 : 103.93367 : 1"
       inkscape:vp_z="393.06339 : 670.2564 : 1"
       inkscape:vp_y="6.1230318e-14 : 1000 : 0"
       inkscape:vp_x="-69.198528 : 665.20564 : 1"
       sodipodi:type="inkscape:persp3d" />
    <inkscape:perspective
       sodipodi:type="inkscape:persp3d"
       inkscape:vp_x="-129.35351 : 665.20564 : 1"
       inkscape:vp_y="6.1230318e-14 : 1000 : 0"
       inkscape:vp_z="332.90841 : 670.2564 : 1"
       inkscape:persp3d-origin="97.231768 : 103.93367 : 1"
       id="perspective10" />
    <pattern
       patternUnits="userSpaceOnUse"
       width="50.9938"
       height="50.993"
       patternTransform="translate(66.1582,167.828)"
       id="pattern3335">
      <path
         inkscape:path-effect="#path-effect3329"
         sodipodi:ry="24.996834"
         sodipodi:rx="24.996834"
         sodipodi:cy="193.32465"
         sodipodi:cx="91.65506"
         id="path3327"
         style="fill:#ff0000;fill-opacity:0.75;fill-rule:evenodd;stroke:#000000;stroke-width:1px;stroke-linecap:butt;stroke-linejoin:miter;stroke-opacity:1"
         sodipodi:type="arc"
         d="M 116.652,193.325 C 116.652,199.869 113.956,206.37 109.328,210.997 C 104.7,215.625 98.1996,218.321 91.6551,218.321 C 85.1105,218.321 78.61,215.625 73.9823,210.997 C 69.3546,206.37 66.6582,199.869 66.6582,193.325 C 66.6582,186.78 69.3546,180.28 73.9823,175.652 C 73.9823,175.652 73.9823,175.652 73.9823,175.652 C 78.61,171.024 85.1105,168.328 91.6551,168.328 C 98.1996,168.328 104.7,171.024 109.328,175.652 C 113.956,180.28 116.652,186.78 116.652,193.325 z"
         transform="translate(-66.1582,-167.828)" />
    </pattern>
    <filter
       inkscape:collect="always"
       id="filter9921"
       x="-0.11265416"
       width="1.2253083"
       y="-0.10838084"
       height="1.2167617">
      <feGaussianBlur
         inkscape:collect="always"
         stdDeviation="0.74558135"
         id="feGaussianBlur9923" />
    </filter>
    <filter
       inkscape:collect="always"
       id="filter10157"
       x="-0.086326004"
       width="1.172652"
       y="-0.25925666"
       height="1.5185133">
      <feGaussianBlur
         inkscape:collect="always"
         stdDeviation="3.9217634"
         id="feGaussianBlur10159" />
    </filter>
  </defs>
  <sodipodi:namedview
     id="base"
     pagecolor="#ffffff"
     bordercolor="#666666"
     borderopacity="1.0"
     inkscape:pageopacity="0.0"
     inkscape:pageshadow="2"
     inkscape:zoom="4.9206232"
     inkscape:cx="187.32054"
     inkscape:cy="930.13424"
     inkscape:document-units="px"
     inkscape:current-layer="layer1"
     showgrid="false"
     inkscape:window-width="1280"
     inkscape:window-height="725"
     inkscape:window-x="0"
     inkscape:window-y="50" />
  <metadata
     id="metadata7">
    <rdf:RDF>
      <cc:Work
         rdf:about="">
        <dc:format>image/svg+xml</dc:format>
        <dc:type
           rdf:resource="http://purl.org/dc/dcmitype/StillImage" />
      </cc:Work>
    </rdf:RDF>
  </metadata>
  <g
     inkscape:label="Capa 1"
     inkscape:groupmode="layer"
     id="layer1">
    <path
       style="font-size:48px;font-style:normal;font-weight:normal;fill:#000000;fill-opacity:1;stroke:none;stroke-width:1px;stroke-linecap:butt;stroke-linejoin:miter;stroke-opacity:1;font-family:Bitstream Vera Sans"
       d="M 145.84375 96.65625 C 140.92186 96.656286 136.98436 98.296909 134.03125 101.59375 C 133.12246 102.6089 132.37763 103.76951 131.75 105 C 133.17189 105.7638 134.57103 106.61314 135.875 107.5 C 136.34023 106.33078 136.92766 105.27002 137.65625 104.34375 C 139.68749 101.78128 142.40623 100.50003 145.84375 100.5 C 149.28123 100.50003 151.99997 101.78128 154 104.34375 C 156.01559 106.90627 157.03122 110.39065 157.03125 114.8125 C 157.03122 119.21876 156.01559 122.71876 154 125.28125 C 151.99997 127.84375 149.28123 129.125 145.84375 129.125 C 142.40623 129.125 139.68749 127.84375 137.65625 125.28125 C 136.92766 124.35499 136.34022 123.29217 135.875 122.125 C 134.55967 123.01958 133.15328 123.88733 131.71875 124.65625 C 132.34755 125.89161 133.1194 127.0127 134.03125 128.03125 C 136.98436 131.3125 140.92186 132.96875 145.84375 132.96875 C 150.74998 132.96875 154.68748 131.31249 157.625 128.03125 C 160.56247 124.73438 162.03122 120.32814 162.03125 114.8125 C 162.03122 109.28127 160.56247 104.87503 157.625 101.59375 C 154.68748 98.296906 150.74998 96.656285 145.84375 96.65625 z M 184.875 96.65625 C 179.40623 96.656286 175.12499 98.265651 172.03125 101.46875 C 168.95312 104.65627 167.40625 109.09378 167.40625 114.8125 C 167.40625 120.51564 168.95312 124.98438 172.03125 128.1875 C 175.12499 131.375 179.40623 132.96875 184.875 132.96875 C 187.37497 132.96875 189.73435 132.62499 191.9375 131.96875 C 194.1406 131.29688 196.14059 130.32812 197.96875 129.03125 L 197.96875 114 L 185.5625 114 L 185.5625 117.90625 L 193.28125 117.90625 L 193.28125 127.28125 C 192.23435 127.89063 191.06247 128.35938 189.75 128.65625 C 188.43747 128.9375 186.95311 129.0625 185.28125 129.0625 C 180.99999 129.06251 177.78124 127.89063 175.625 125.5 C 173.48437 123.10939 172.40624 119.53126 172.40625 114.8125 C 172.40624 110.07815 173.48437 106.51565 175.625 104.125 C 177.78124 101.73441 180.99999 100.56254 185.28125 100.5625 C 187.45311 100.56254 189.49998 100.93754 191.46875 101.6875 C 193.43747 102.43753 195.31247 103.5469 197.0625 105.03125 L 197.0625 100 C 195.32809 98.906288 193.43748 98.062534 191.375 97.5 C 189.3281 96.937536 187.15622 96.656285 184.875 96.65625 z M 206.65625 97.28125 L 206.65625 132.28125 L 211.25 132.28125 L 211.25 101.5625 L 220.25 125.5625 L 225.03125 125.5625 L 234.03125 101.5625 L 234.03125 110.1875 C 235.33184 109.02394 236.9204 107.8207 238.65625 106.71875 L 238.65625 97.28125 L 231.59375 97.28125 L 222.625 121.09375 L 213.6875 97.28125 L 206.65625 97.28125 z M 234.03125 119.4375 L 234.03125 132.28125 L 238.65625 132.28125 L 238.65625 122.90625 C 236.9204 121.8043 235.33184 120.60106 234.03125 119.4375 z "
       id="text9853"
       inkscape:export-filename="/home/teleyinex/Proyectos/ogm/trunk/img/logo.png"
       inkscape:export-xdpi="150"
       inkscape:export-ydpi="150" />
    <g
       id="g10081"
       inkscape:export-filename="/home/teleyinex/Proyectos/ogm/trunk/img/logo.png"
       inkscape:export-xdpi="150"
       inkscape:export-ydpi="150"
       transform="translate(2.8451677,-1.1229765)">
      <path
         transform="matrix(0,-1.5918614,1.5918614,0,55.80943,322.02472)"
         d="M 136.78441,122.35416 C 135.25932,124.99569 122.25591,124.99569 120.73082,122.35416 C 119.20573,119.71262 125.70743,108.45134 128.75761,108.45134 C 131.8078,108.45134 138.3095,119.71262 136.78441,122.35416 z"
         inkscape:randomized="0"
         inkscape:rounded="0.19"
         inkscape:flatsided="true"
         sodipodi:arg2="1.5707963"
         sodipodi:arg1="0.52359878"
         sodipodi:r2="4.6342726"
         sodipodi:r1="9.2685452"
         sodipodi:cy="117.71989"
         sodipodi:cx="128.75761"
         sodipodi:sides="3"
         id="path9965"
         style="fill:#2e3436;fill-opacity:1;fill-rule:evenodd;stroke:none;stroke-width:1;stroke-linecap:round;stroke-linejoin:miter;stroke-miterlimit:4;stroke-dasharray:none;stroke-dashoffset:0;stroke-opacity:1;filter:url(#filter9921)"
         sodipodi:type="star" />
      <path
         sodipodi:type="star"
         style="fill:#204a87;fill-opacity:1;fill-rule:evenodd;stroke:none;stroke-width:1;stroke-linecap:round;stroke-linejoin:miter;stroke-miterlimit:4;stroke-dasharray:none;stroke-dashoffset:0;stroke-opacity:1"
         id="path9967"
         sodipodi:sides="3"
         sodipodi:cx="128.75761"
         sodipodi:cy="117.71989"
         sodipodi:r1="9.2685452"
         sodipodi:r2="4.6342726"
         sodipodi:arg1="0.52359878"
         sodipodi:arg2="1.5707963"
         inkscape:flatsided="true"
         inkscape:rounded="0.19"
         inkscape:randomized="0"
         d="M 136.78441,122.35416 C 135.25932,124.99569 122.25591,124.99569 120.73082,122.35416 C 119.20573,119.71262 125.70743,108.45134 128.75761,108.45134 C 131.8078,108.45134 138.3095,119.71262 136.78441,122.35416 z"
         transform="matrix(0,-1.5918614,1.5918614,0,56.67165,320.58769)" />
    </g>
    <g
       transform="matrix(-1,0,0,1,370.4578,-1.1229765)"
       inkscape:export-ydpi="150"
       inkscape:export-xdpi="150"
       inkscape:export-filename="/home/teleyinex/Proyectos/ogm/trunk/img/logo.png"
       id="g10186">
      <path
         sodipodi:type="star"
         style="fill:#2e3436;fill-opacity:1;fill-rule:evenodd;stroke:none;stroke-width:1;stroke-linecap:round;stroke-linejoin:miter;stroke-miterlimit:4;stroke-dasharray:none;stroke-dashoffset:0;stroke-opacity:1;filter:url(#filter9921)"
         id="path10188"
         sodipodi:sides="3"
         sodipodi:cx="128.75761"
         sodipodi:cy="117.71989"
         sodipodi:r1="9.2685452"
         sodipodi:r2="4.6342726"
         sodipodi:arg1="0.52359878"
         sodipodi:arg2="1.5707963"
         inkscape:flatsided="true"
         inkscape:rounded="0.19"
         inkscape:randomized="0"
         d="M 136.78441,122.35416 C 135.25932,124.99569 122.25591,124.99569 120.73082,122.35416 C 119.20573,119.71262 125.70743,108.45134 128.75761,108.45134 C 131.8078,108.45134 138.3095,119.71262 136.78441,122.35416 z"
         transform="matrix(0,-1.5918614,1.5918614,0,55.80943,322.02472)" />
      <path
         transform="matrix(0,-1.5918614,1.5918614,0,56.67165,320.58769)"
         d="M 136.78441,122.35416 C 135.25932,124.99569 122.25591,124.99569 120.73082,122.35416 C 119.20573,119.71262 125.70743,108.45134 128.75761,108.45134 C 131.8078,108.45134 138.3095,119.71262 136.78441,122.35416 z"
         inkscape:randomized="0"
         inkscape:rounded="0.19"
         inkscape:flatsided="true"
         sodipodi:arg2="1.5707963"
         sodipodi:arg1="0.52359878"
         sodipodi:r2="4.6342726"
         sodipodi:r1="9.2685452"
         sodipodi:cy="117.71989"
         sodipodi:cx="128.75761"
         sodipodi:sides="3"
         id="path10190"
         style="fill:#204a87;fill-opacity:1;fill-rule:evenodd;stroke:none;stroke-width:1;stroke-linecap:round;stroke-linejoin:miter;stroke-miterlimit:4;stroke-dasharray:none;stroke-dashoffset:0;stroke-opacity:1"
         sodipodi:type="star" />
    </g>
  </g>
</svg>
