<?xml version="1.0" encoding="UTF-8" standalone="no"?>
<!-- Created with Inkscape (http://www.inkscape.org/) -->
<svg
   xmlns:dc="http://purl.org/dc/elements/1.1/"
   xmlns:cc="http://creativecommons.org/ns#"
   xmlns:rdf="http://www.w3.org/1999/02/22-rdf-syntax-ns#"
   xmlns:svg="http://www.w3.org/2000/svg"
   xmlns="http://www.w3.org/2000/svg"
   xmlns:sodipodi="http://sodipodi.sourceforge.net/DTD/sodipodi-0.dtd"
   xmlns:inkscape="http://www.inkscape.org/namespaces/inkscape"
   width="210mm"
   height="297mm"
   id="svg2"
   sodipodi:version="0.32"
   inkscape:version="0.46"
   sodipodi:docname="logo.svg"
   inkscape:output_extension="org.inkscape.output.svg.inkscape"
   inkscape:export-filename="img/logo.png"
   inkscape:export-xdpi="150"
   inkscape:export-ydpi="150">
  <defs
     id="defs4">
    <inkscape:path-effect
       effect="skeletal"
       id="path-effect3329"
       prop_scale="1" />
    <inkscape:perspective
       sodipodi:type="inkscape:persp3d"
       inkscape:vp_x="-11.482285 : 665.20564 : 1"
       inkscape:vp_y="6.1230318e-14 : 1000 : 0"
       inkscape:vp_z="450.77964 : 670.2564 : 1"
       inkscape:persp3d-origin="215.103 : 103.93367 : 1"
       id="perspective2597" />
    <inkscape:perspective
       id="perspective2581"
       inkscape:persp3d-origin="215.103 : 163.27576 : 1"
       inkscape:vp_z="450.77964 : 729.59849 : 1"
       inkscape:vp_y="6.1230318e-14 : 1000 : 0"
       inkscape:vp_x="-11.482285 : 724.54773 : 1"
       sodipodi:type="inkscape:persp3d" />
    <inkscape:perspective
       sodipodi:type="inkscape:persp3d"
       inkscape:vp_x="-11.48228 : 783.8898 : 1"
       inkscape:vp_y="6.1230318e-14 : 1000 : 0"
       inkscape:vp_z="450.77964 : 788.94056 : 1"
       inkscape:persp3d-origin="215.103 : 222.61783 : 1"
       id="perspective2565" />
    <inkscape:perspective
       id="perspective2549"
       inkscape:persp3d-origin="157.38674 : 222.61783 : 1"
       inkscape:vp_z="393.06338 : 788.94056 : 1"
       inkscape:vp_y="6.1230318e-14 : 1000 : 0"
       inkscape:vp_x="-69.198541 : 783.8898 : 1"
       sodipodi:type="inkscape:persp3d" />
    <inkscape:perspective
       sodipodi:type="inkscape:persp3d"
       inkscape:vp_x="-127.72771 : 783.8898 : 1"
       inkscape:vp_y="6.1230318e-14 : 1000 : 0"
       inkscape:vp_z="334.53421 : 788.94056 : 1"
       inkscape:persp3d-origin="98.857568 : 222.61783 : 1"
       id="perspective2533" />
    <inkscape:perspective
       id="perspective2517"
       inkscape:persp3d-origin="98.857579 : 163.27576 : 1"
       inkscape:vp_z="334.53422 : 729.59849 : 1"
       inkscape:vp_y="6.1230318e-14 : 1000 : 0"
       inkscape:vp_x="-127.7277 : 724.54773 : 1"
       sodipodi:type="inkscape:persp3d" />
    <inkscape:perspective
       sodipodi:type="inkscape:persp3d"
       inkscape:vp_x="-69.198528 : 724.54773 : 1"
       inkscape:vp_y="6.1230318e-14 : 1000 : 0"
       inkscape:vp_z="393.06339 : 729.59849 : 1"
       inkscape:persp3d-origin="157.38675 : 163.27576 : 1"
       id="perspective2501" />
    <inkscape:perspective
       id="perspective2485"
       inkscape:persp3d-origin="157.38675 : 103.93367 : 1"
       inkscape:vp_z="393.06339 : 670.2564 : 1"
       inkscape:vp_y="6.1230318e-14 : 1000 : 0"
       inkscape:vp_x="-69.198528 : 665.20564 : 1"
       sodipodi:type="inkscape:persp3d" />
    <inkscape:perspective
       sodipodi:type="inkscape:persp3d"
       inkscape:vp_x="-129.35351 : 665.20564 : 1"
       inkscape:vp_y="6.1230318e-14 : 1000 : 0"
       inkscape:vp_z="332.90841 : 670.2564 : 1"
       inkscape:persp3d-origin="97.231768 : 103.93367 : 1"
       id="perspective10" />
    <pattern
       patternUnits="userSpaceOnUse"
       width="50.9938"
       height="50.993"
       patternTransform="translate(66.1582,167.828)"
       id="pattern3335">
      <path
         inkscape:path-effect="#path-effect3329"
         sodipodi:ry="24.996834"
         sodipodi:rx="24.996834"
         sodipodi:cy="193.32465"
         sodipodi:cx="91.65506"
         id="path3327"
         style="fill:#ff0000;fill-opacity:0.75;fill-rule:evenodd;stroke:#000000;stroke-width:1px;stroke-linecap:butt;stroke-linejoin:miter;stroke-opacity:1"
         sodipodi:type="arc"
         transform="translate(-66.1582,-167.828)"
         d="M 116.652,193.325 C 116.652,199.869 113.956,206.37 109.328,210.997 C 104.7,215.625 98.1996,218.321 91.6551,218.321 C 85.1105,218.321 78.61,215.625 73.9823,210.997 C 69.3546,206.37 66.6582,199.869 66.6582,193.325 C 66.6582,186.78 69.3546,180.28 73.9823,175.652 C 73.9823,175.652 73.9823,175.652 73.9823,175.652 C 78.61,171.024 85.1105,168.328 91.6551,168.328 C 98.1996,168.328 104.7,171.024 109.328,175.652 C 113.956,180.28 116.652,186.78 116.652,193.325 z" />
    </pattern>
    <filter
       inkscape:collect="always"
       id="filter9921"
       x="-0.11265416"
       width="1.2253083"
       y="-0.10838084"
       height="1.2167617">
      <feGaussianBlur
         inkscape:collect="always"
         stdDeviation="0.74558135"
         id="feGaussianBlur9923" />
    </filter>
  </defs>
  <sodipodi:namedview
     id="base"
     pagecolor="#ffffff"
     bordercolor="#666666"
     borderopacity="1.0"
     inkscape:pageopacity="0.0"
     inkscape:pageshadow="2"
     inkscape:zoom="4.9206232"
     inkscape:cx="187.32054"
     inkscape:cy="958.96269"
     inkscape:document-units="px"
     inkscape:current-layer="layer1"
     showgrid="false"
     inkscape:window-width="1440"
     inkscape:window-height="825"
     inkscape:window-x="0"
     inkscape:window-y="50" />
  <metadata
     id="metadata7">
    <rdf:RDF>
      <cc:Work
         rdf:about="">
        <dc:format>image/svg+xml</dc:format>
        <dc:type
           rdf:resource="http://purl.org/dc/dcmitype/StillImage" />
      </cc:Work>
    </rdf:RDF>
  </metadata>
  <g
     inkscape:label="Capa 1"
     inkscape:groupmode="layer"
     id="layer1">
    <path
       style="font-size:48px;font-style:normal;font-weight:normal;fill:#000000;fill-opacity:1;stroke:none;stroke-width:1px;stroke-linecap:butt;stroke-linejoin:miter;stroke-opacity:1;font-family:Bitstream Vera Sans"
       d="M 193.28125 90 L 193.28125 95.46875 L 197.59375 95.46875 L 197.59375 90 L 193.28125 90 z M 215.8125 90 C 212.85936 90.000036 210.70311 90.656286 209.34375 92 C 207.98437 93.328158 207.31249 95.453156 207.3125 98.375 L 207.3125 100.21875 L 203.1875 100.21875 L 203.1875 103.5625 L 207.3125 103.5625 L 207.3125 126.46875 L 211.625 126.46875 L 211.625 103.5625 L 218.75 103.5625 L 218.75 100.21875 L 211.625 100.21875 L 211.625 97.90625 C 211.62499 96.28128 211.93748 95.156281 212.53125 94.53125 C 213.14061 93.906283 214.20311 93.593783 215.75 93.59375 L 219.875 93.59375 L 219.875 90 L 215.8125 90 z M 130.09375 91.46875 L 130.09375 106.90625 C 131.94256 108.13296 133.5973 109.4361 134.84375 110.6875 L 134.84375 91.46875 L 130.09375 91.46875 z M 153.28125 99.59375 C 151.87499 99.593777 150.42186 99.750027 148.9375 100.0625 C 147.45312 100.3594 145.92186 100.7969 144.34375 101.40625 L 144.34375 105.40625 C 145.65624 104.68752 147.01561 104.14065 148.4375 103.78125 C 149.85936 103.4219 151.34373 103.25002 152.84375 103.25 C 155.20311 103.25002 157.0156 103.78127 158.3125 104.875 C 159.62498 105.95315 160.28122 107.48439 160.28125 109.46875 L 160.28125 109.90625 L 154.25 109.90625 C 150.32811 109.90627 147.35936 110.65627 145.375 112.15625 C 143.40625 113.65626 142.43749 115.85939 142.4375 118.8125 C 142.4375 121.34376 143.20311 123.39063 144.78125 124.90625 C 146.37499 126.40625 148.53123 127.15625 151.21875 127.15625 C 153.34374 127.15625 155.12498 126.78125 156.59375 126.03125 C 158.06248 125.26563 159.29685 124.0625 160.28125 122.46875 L 160.28125 126.46875 L 164.59375 126.46875 L 164.59375 111.5 C 164.59372 107.50002 163.65622 104.50002 161.78125 102.53125 C 159.90623 100.56253 157.0781 99.593777 153.28125 99.59375 z M 186.5 99.59375 C 184.42186 99.593777 182.67185 99.968776 181.21875 100.75 C 179.76561 101.51565 178.59373 102.68752 177.6875 104.28125 L 177.6875 100.21875 L 173.34375 100.21875 L 173.34375 126.46875 L 177.6875 126.46875 L 177.6875 112.625 C 177.68749 109.65627 178.32811 107.39064 179.625 105.8125 C 180.93749 104.21877 182.81248 103.43752 185.25 103.4375 C 185.93748 103.43752 186.56247 103.4844 187.125 103.625 C 187.70311 103.75002 188.23435 103.96877 188.71875 104.25 L 188.6875 99.8125 C 188.24998 99.734402 187.85935 99.687527 187.5 99.65625 C 187.14061 99.609402 186.79685 99.593777 186.5 99.59375 z M 232.6875 99.59375 C 231.28124 99.593777 229.82811 99.750027 228.34375 100.0625 C 226.85937 100.3594 225.32811 100.7969 223.75 101.40625 L 223.75 105.40625 C 225.06249 104.68752 226.42186 104.14065 227.84375 103.78125 C 229.26561 103.4219 230.74998 103.25002 232.25 103.25 C 234.60936 103.25002 236.42185 103.78127 237.71875 104.875 C 239.03123 105.95315 239.68747 107.48439 239.6875 109.46875 L 239.6875 109.90625 L 233.65625 109.90625 C 229.73436 109.90627 226.76561 110.65627 224.78125 112.15625 C 222.8125 113.65626 221.84374 115.85939 221.84375 118.8125 C 221.84375 121.34376 222.60936 123.39063 224.1875 124.90625 C 225.78124 126.40625 227.93748 127.15625 230.625 127.15625 C 232.74999 127.15625 234.53123 126.78125 236 126.03125 C 237.46873 125.26563 238.7031 124.0625 239.6875 122.46875 L 239.6875 126.46875 L 244 126.46875 L 244 121.25 C 242.08832 119.88177 240.42031 118.46619 239.375 117.15625 C 239.03213 118.65634 238.40819 119.93555 237.5 121 C 236.06248 122.6875 234.17185 123.53125 231.78125 123.53125 C 230.04686 123.53125 228.67186 123.07813 227.65625 122.1875 C 226.65624 121.28126 226.15624 120.06251 226.15625 118.53125 C 226.15624 116.60938 226.81248 115.26564 228.15625 114.46875 C 229.49999 113.67189 231.92185 113.28126 235.40625 113.28125 L 238.46875 113.28125 C 239.20071 111.69635 241.19163 109.79318 243.6875 107.96875 C 243.27824 105.69493 242.45899 103.86635 241.1875 102.53125 C 239.31248 100.56253 236.48435 99.593777 232.6875 99.59375 z M 193.28125 100.21875 L 193.28125 126.46875 L 197.59375 126.46875 L 197.59375 100.21875 L 193.28125 100.21875 z M 156 113.28125 L 160.28125 113.28125 L 160.28125 114.21875 C 160.28123 117.03126 159.54685 119.29688 158.09375 121 C 156.65623 122.6875 154.7656 123.53125 152.375 123.53125 C 150.64061 123.53125 149.26561 123.07813 148.25 122.1875 C 147.24999 121.28126 146.74999 120.06251 146.75 118.53125 C 146.74999 116.60938 147.40623 115.26564 148.75 114.46875 C 150.09374 113.67189 152.5156 113.28126 156 113.28125 z M 134.84375 118.3125 C 133.5973 119.5639 131.94256 120.86704 130.09375 122.09375 L 130.09375 124.03125 C 130.09375 127.0625 129.67186 129.17188 128.8125 130.34375 C 127.95312 131.51562 126.46875 132.09375 124.375 132.09375 L 122.90625 132.09375 L 122.90625 136.0625 L 124.71875 136.0625 C 128.26562 136.06249 130.81249 135.125 132.40625 133.21875 C 134.01562 131.3125 134.84373 128.25 134.84375 124.03125 L 134.84375 118.3125 z "
       id="text2401"
       inkscape:export-filename="/home/teleyinex/Proyectos/jarifa/img/logo.png"
       inkscape:export-xdpi="150"
       inkscape:export-ydpi="150" />
    <g
       id="g2409"
       inkscape:export-filename="/home/teleyinex/Proyectos/jarifa/img/logo.png"
       inkscape:export-xdpi="150"
       inkscape:export-ydpi="150"
       transform="matrix(-1,0,0,1,365.23844,-1.4808852)">
      <path
         transform="matrix(0,-1.5918614,1.5918614,0,55.80943,322.02472)"
         d="M 136.78441,122.35416 C 135.25932,124.99569 122.25591,124.99569 120.73082,122.35416 C 119.20573,119.71262 125.70743,108.45134 128.75761,108.45134 C 131.8078,108.45134 138.3095,119.71262 136.78441,122.35416 z"
         inkscape:randomized="0"
         inkscape:rounded="0.19"
         inkscape:flatsided="true"
         sodipodi:arg2="1.5707963"
         sodipodi:arg1="0.52359878"
         sodipodi:r2="4.6342726"
         sodipodi:r1="9.2685452"
         sodipodi:cy="117.71989"
         sodipodi:cx="128.75761"
         sodipodi:sides="3"
         id="path2411"
         style="fill:#2e3436;fill-opacity:1;fill-rule:evenodd;stroke:none;stroke-width:1;stroke-linecap:round;stroke-linejoin:miter;stroke-miterlimit:4;stroke-dasharray:none;stroke-dashoffset:0;stroke-opacity:1;filter:url(#filter9921)"
         sodipodi:type="star" />
      <path
         sodipodi:type="star"
         style="fill:#204a87;fill-opacity:1;fill-rule:evenodd;stroke:none;stroke-width:1;stroke-linecap:round;stroke-linejoin:miter;stroke-miterlimit:4;stroke-dasharray:none;stroke-dashoffset:0;stroke-opacity:1"
         id="path2413"
         sodipodi:sides="3"
         sodipodi:cx="128.75761"
         sodipodi:cy="117.71989"
         sodipodi:r1="9.2685452"
         sodipodi:r2="4.6342726"
         sodipodi:arg1="0.52359878"
         sodipodi:arg2="1.5707963"
         inkscape:flatsided="true"
         inkscape:rounded="0.19"
         inkscape:randomized="0"
         d="M 136.78441,122.35416 C 135.25932,124.99569 122.25591,124.99569 120.73082,122.35416 C 119.20573,119.71262 125.70743,108.45134 128.75761,108.45134 C 131.8078,108.45134 138.3095,119.71262 136.78441,122.35416 z"
         transform="matrix(0,-1.5918614,1.5918614,0,56.67165,320.58769)" />
    </g>
    <g
       transform="translate(9.8612995,-1.122977)"
       inkscape:export-ydpi="150"
       inkscape:export-xdpi="150"
       inkscape:export-filename="/home/teleyinex/Proyectos/jarifa/img/logo.png"
       id="g2417">
      <path
         sodipodi:type="star"
         style="fill:#2e3436;fill-opacity:1;fill-rule:evenodd;stroke:none;stroke-width:1;stroke-linecap:round;stroke-linejoin:miter;stroke-miterlimit:4;stroke-dasharray:none;stroke-dashoffset:0;stroke-opacity:1;filter:url(#filter9921)"
         id="path2419"
         sodipodi:sides="3"
         sodipodi:cx="128.75761"
         sodipodi:cy="117.71989"
         sodipodi:r1="9.2685452"
         sodipodi:r2="4.6342726"
         sodipodi:arg1="0.52359878"
         sodipodi:arg2="1.5707963"
         inkscape:flatsided="true"
         inkscape:rounded="0.19"
         inkscape:randomized="0"
         d="M 136.78441,122.35416 C 135.25932,124.99569 122.25591,124.99569 120.73082,122.35416 C 119.20573,119.71262 125.70743,108.45134 128.75761,108.45134 C 131.8078,108.45134 138.3095,119.71262 136.78441,122.35416 z"
         transform="matrix(0,-1.5918614,1.5918614,0,55.80943,322.02472)" />
      <path
         transform="matrix(0,-1.5918614,1.5918614,0,56.67165,320.58769)"
         d="M 136.78441,122.35416 C 135.25932,124.99569 122.25591,124.99569 120.73082,122.35416 C 119.20573,119.71262 125.70743,108.45134 128.75761,108.45134 C 131.8078,108.45134 138.3095,119.71262 136.78441,122.35416 z"
         inkscape:randomized="0"
         inkscape:rounded="0.19"
         inkscape:flatsided="true"
         sodipodi:arg2="1.5707963"
         sodipodi:arg1="0.52359878"
         sodipodi:r2="4.6342726"
         sodipodi:r1="9.2685452"
         sodipodi:cy="117.71989"
         sodipodi:cx="128.75761"
         sodipodi:sides="3"
         id="path2421"
         style="fill:#204a87;fill-opacity:1;fill-rule:evenodd;stroke:none;stroke-width:1;stroke-linecap:round;stroke-linejoin:miter;stroke-miterlimit:4;stroke-dasharray:none;stroke-dashoffset:0;stroke-opacity:1"
         sodipodi:type="star" />
    </g>
  </g>
</svg>
